<?xml version="1.0" standalone="no"?>
<!DOCTYPE svg PUBLIC "-//W3C//DTD SVG 20010904//EN"
 "http://www.w3.org/TR/2001/REC-SVG-20010904/DTD/svg10.dtd">
<svg version="1.0" xmlns="http://www.w3.org/2000/svg"
 width="150.000000pt" height="150.000000pt" viewBox="0 0 150.000000 150.000000"
 preserveAspectRatio="xMidYMid meet">
<metadata>
Created by potrace 1.11, written by Peter Selinger 2001-2013
</metadata>
<g transform="translate(0.000000,150.000000) scale(0.100000,-0.100000)"
fill="#000000" stroke="none">
<path d="M210 775 l0 -335 25 0 25 0 2 287 3 287 210 -285 c152 -205 217 -285
233 -287 l22 -3 0 335 0 336 -25 0 -25 0 -2 -284 -3 -285 -210 284 c-166 226
-215 285 -232 285 l-23 0 0 -335z"/>
<path d="M890 776 l0 -336 111 0 c62 0 129 5 150 12 144 43 175 260 45 322
-19 9 -42 16 -53 16 -11 0 -4 8 21 23 54 30 80 78 80 144 0 57 -17 90 -68 127
-24 18 -45 21 -157 25 l-129 3 0 -336z m234 280 c45 -19 66 -52 66 -104 0 -95
-60 -141 -182 -142 l-68 0 0 130 0 130 75 0 c42 0 90 -6 109 -14z m33 -309
c48 -25 67 -61 67 -123 0 -102 -57 -144 -196 -144 l-88 0 0 146 0 146 93 -4
c60 -3 103 -10 124 -21z"/>
</g>
</svg>
